<?xml version="1.0" encoding="utf-8"?>
<!-- Generator: Adobe Illustrator 17.1.0, SVG Export Plug-In . SVG Version: 6.00 Build 0)  -->
<!DOCTYPE svg PUBLIC "-//W3C//DTD SVG 1.1//EN" "http://www.w3.org/Graphics/SVG/1.1/DTD/svg11.dtd">
<svg version="1.1" id="Capa_1" xmlns="http://www.w3.org/2000/svg" xmlns:xlink="http://www.w3.org/1999/xlink" x="0px" y="0px"
	 viewBox="0 0 200 200" enable-background="new 0 0 200 200" xml:space="preserve">
<g>
	<path d="M160,35.9c-14.1-14.1-37.2-14.1-51.3,0L81,63.6c9.5-2.7,19.8-2,28.8,2.2l14.4-14.4c5.6-5.6,14.7-5.6,20.3,0
		c5.6,5.6,5.6,14.7,0,20.3l-18.1,18.1l-11.9,11.9c-5.6,5.6-14.7,5.6-20.3,0l-15.5,15.5c3.6,3.6,7.8,6.3,12.2,8
		c11.9,4.7,25.7,2.9,36.1-5.3c1-0.8,2.1-1.7,3-2.7l18.7-18.7L160,87.2C174.2,73.1,174.2,50.1,160,35.9z"/>
	<path d="M86.3,129.9l-13.8,13.8c-5.6,5.6-14.7,5.6-20.3,0c-5.6-5.6-5.6-14.7,0-20.3l30-30c5.6-5.6,14.7-5.6,20.3,0l15.5-15.5
		c-3.6-3.6-7.8-6.3-12.2-8c-12.5-5-27.2-2.7-37.7,6.7c-0.5,0.4-1,0.9-1.4,1.3l-30,30c-14.1,14.1-14.1,37.2,0,51.3
		c14.1,14.1,37.2,14.1,51.3,0l27.1-27.4C101.3,135,98.1,134.6,86.3,129.9z"/>
</g>
</svg>
